<svg width="14" height="12" viewBox="0 0 14 12" fill="none" xmlns="http://www.w3.org/2000/svg">
<path d="M13.4533 1.99414C12.9775 2.20469 12.4689 2.34688 11.933 2.4125C12.4799 2.08438 12.901 1.56484 13.0979 0.946875C12.5865 1.25039 12.0205 1.47187 11.4162 1.58945C10.9322 1.07266 10.2432 0.75 9.48301 0.75C8.02012 0.75 6.83613 1.93672 6.83613 3.39961C6.83613 3.60742 6.85801 3.80977 6.90449 4.00391C4.70332 3.89453 2.75098 2.83906 1.44668 1.23398C1.21973 1.625 1.08848 2.08164 1.08848 2.56562C1.08848 3.48437 1.55879 4.29648 2.26973 4.77227C1.83223 4.76133 1.42207 4.64102 1.0666 4.44141V4.47422C1.0666 5.75938 1.97988 6.82852 3.19121 7.07188C2.96973 7.13203 2.73457 7.16484 2.49395 7.16484C2.32441 7.16484 2.15762 7.14844 1.99629 7.11562C2.33262 8.16836 3.31152 8.93398 4.4709 8.95586C3.56582 9.6668 2.42285 10.0906 1.18145 10.0906C0.968164 10.0906 0.757617 10.077 0.549805 10.0523C1.71738 10.8125 3.10918 11.25 4.60215 11.25C9.47754 11.25 12.1408 7.21133 12.1408 3.70859C12.1408 3.59375 12.1381 3.47891 12.1326 3.3668C12.6494 2.99219 13.0979 2.52734 13.4533 1.99414Z" fill="white"/>
</svg>
